<svg width="60" height="60" viewBox="0 0 60 60" fill="none" xmlns="http://www.w3.org/2000/svg">
<path d="M56.25 35.6402V31.8902H46.875V25.2188C50.3227 21.9434 50.625 17.6297 50.625 13.125V11.25H46.875V13.125C46.875 16.4062 46.657 18.7676 45.7148 20.6062C43.125 15 38.0062 13.125 30 13.125C25.3359 13.125 21.1887 13.9523 18.2309 15.975C16.4848 17.1691 15.2777 18.8941 14.3988 20.6297C13.3594 18.8168 13.125 16.5023 13.125 13.125V11.25H9.375V13.125C9.375 17.5125 9.67852 21.7219 13.125 24.9844V31.8902H3.75V35.6402L13.125 35.625C13.125 37.8516 13.5586 41.8465 14.3426 43.7918C11.3203 46.4953 9.375 49.4895 9.375 54.375V56.25H13.125V54.375C13.125 51.1336 14.1914 49.1355 16.1918 47.1891C18.75 52.5 20.7422 54.375 28.125 54.375V20.625H31.875V54.375C39.4922 54.375 41.25 52.5 43.8082 47.1891C45.8086 49.1355 46.875 51.1348 46.875 54.375V56.25H50.625V54.375C50.625 49.4906 48.6797 46.4965 45.6574 43.7918C46.4414 41.8465 46.875 37.8516 46.875 35.625L56.25 35.6402Z" fill="#8405DB"/>
<path d="M30 3.75C24.368 3.75 18.75 3.75 18.75 13.5938C21.8109 11.9531 25.7051 11.25 30 11.25C32.823 11.25 35.4012 11.5605 37.6629 12.1875C38.9227 12.5391 40.5527 13.2082 41.25 13.5938C41.25 3.75 35.632 3.75 30 3.75Z" fill="#8405DB"/>
</svg>
