<svg width="60" height="60" viewBox="0 0 60 60" fill="none" xmlns="http://www.w3.org/2000/svg">
<g clip-path="url(#clip0_15_580)">
<path d="M58.125 46.875H54.8039C55.7359 45.842 56.2512 44.4998 56.25 43.1086V15.0164C56.2481 13.5208 55.6532 12.087 54.5956 11.0294C53.5381 9.97182 52.1042 9.37686 50.6086 9.375H9.39141C7.89578 9.37686 6.46195 9.97182 5.40438 11.0294C4.34682 12.087 3.75186 13.5208 3.75 15.0164V43.1086C3.74883 44.4998 4.26415 45.842 5.19609 46.875H1.875C1.37772 46.875 0.900806 47.0725 0.549175 47.4242C0.197544 47.7758 0 48.2527 0 48.75C0 49.2473 0.197544 49.7242 0.549175 50.0758C0.900806 50.4275 1.37772 50.625 1.875 50.625H58.125C58.6223 50.625 59.0992 50.4275 59.4508 50.0758C59.8025 49.7242 60 49.2473 60 48.75C60 48.2527 59.8025 47.7758 59.4508 47.4242C59.0992 47.0725 58.6223 46.875 58.125 46.875Z" fill="#8405DB"/>
</g>
<defs>
<clipPath id="clip0_15_580">
<rect width="60" height="60" fill="white"/>
</clipPath>
</defs>
</svg>
