<svg width="60" height="60" viewBox="0 0 60 60" fill="none" xmlns="http://www.w3.org/2000/svg">
<path d="M54.375 50.1562L39.8344 35.6133C42.1777 32.3931 43.4382 28.5122 43.4344 24.5297C43.4344 14.1059 34.9535 5.625 24.5297 5.625C14.1059 5.625 5.625 14.1059 5.625 24.5297C5.625 34.9535 14.1059 43.4344 24.5297 43.4344C28.5122 43.4382 32.3931 42.1777 35.6133 39.8344L50.1562 54.375L54.375 50.1562ZM24.5297 37.4637C21.9713 37.4639 19.4702 36.7054 17.3429 35.2842C15.2155 33.863 13.5574 31.8428 12.5782 29.4791C11.599 27.1155 11.3428 24.5146 11.8418 22.0053C12.3409 19.496 13.5729 17.1911 15.382 15.382C17.1911 13.5729 19.496 12.3409 22.0053 11.8418C24.5146 11.3428 27.1155 11.599 29.4791 12.5782C31.8428 13.5574 33.863 15.2155 35.2842 17.3429C36.7054 19.4702 37.4639 21.9713 37.4637 24.5297C37.4596 27.9588 36.0957 31.2462 33.6709 33.6709C31.2462 36.0957 27.9588 37.4596 24.5297 37.4637Z" fill="#8405DB"/>
</svg>
