<svg width="60" height="60" viewBox="0 0 60 60" fill="none" xmlns="http://www.w3.org/2000/svg">
<path d="M30 3.75C20.3906 8.09297 14.2242 10.132 3.75 11.25C3.75 20.3426 4.36758 26.8781 6.71367 32.8723C8.63205 37.7601 11.4741 42.2326 15.0844 46.0453C20.8969 52.2164 27.2918 55.4672 30 56.25C32.7082 55.4672 39.1031 52.2164 44.9156 46.0453C48.5259 42.2326 51.3679 37.7601 53.2863 32.8723C55.6324 26.8781 56.25 20.3426 56.25 11.25C45.7758 10.132 39.6094 8.09297 30 3.75ZM48.9223 31.1637C47.2211 35.4929 44.7022 39.4541 41.5031 42.8309C37.0312 47.5781 32.4199 50.1926 30 51.2531V8.88281C34.541 10.875 38.0543 12.1992 41.4762 13.2059C44.7639 14.1675 48.1162 14.8928 51.5074 15.3762C51.3059 22.4332 50.5277 27.0586 48.9223 31.1637Z" fill="#8405DB"/>
</svg>
