<svg width="100" height="101" viewBox="0 0 100 101" fill="none" xmlns="http://www.w3.org/2000/svg">
<path d="M92.3438 55.1875C87.3438 58.3125 86.25 62.4531 89.0234 67.6484C91.7969 72.8438 90.2344 75.5391 84.3359 75.7344C78.4766 75.9297 75.4297 78.9766 75.1953 84.875C75 90.7344 72.3047 92.2969 67.1094 89.5625C61.9141 86.8281 57.7734 87.9219 54.6484 92.8828C51.5234 97.8828 48.4375 97.8828 45.3125 92.8828C42.1875 87.8828 38.0469 86.7891 32.8516 89.5625C27.6562 92.3359 24.9609 90.7734 24.7656 84.875C24.5703 79.0156 21.5234 75.9688 15.625 75.7344C9.72656 75.5 8.20313 72.8438 10.9375 67.6484C13.7109 62.4531 12.5781 58.3125 7.61719 55.1875C2.61719 52.0625 2.61719 48.9766 7.61719 45.8516C12.6172 42.7266 13.7109 38.5859 10.9375 33.3906C8.16406 28.1953 9.72656 25.5 15.625 25.3047C21.4844 25.1094 24.5313 22.0625 24.7656 16.1641C24.9609 10.3047 27.6562 8.74219 32.8516 11.4766C38.0469 14.2109 42.1875 13.1172 45.3125 8.15625C48.4375 3.15625 51.5234 3.15625 54.6484 8.15625C57.7734 13.1562 61.9141 14.25 67.1094 11.4766C72.3047 8.70312 75 10.2656 75.1953 16.1641C75.3906 22.0234 78.4375 25.0703 84.3359 25.3047C90.1953 25.5 91.7578 28.1953 89.0234 33.3906C86.25 38.5859 87.3828 42.7266 92.3438 45.8516C97.3438 48.9375 97.3438 52.0625 92.3438 55.1875ZM66.5625 42.6094L64.375 40.5781C63.7891 40.0312 62.8125 40.0312 62.1875 40.5781L45.3125 56.5156L37.7734 49.3281C37.1875 48.7812 36.1719 48.7812 35.5859 49.3281L33.3984 51.3594C32.8125 51.9062 32.8125 52.8437 33.3984 53.3906L44.2578 63.625C44.8438 64.1719 45.8594 64.1719 46.4453 63.625L66.5625 44.6406C67.1484 44.0938 67.1484 43.1953 66.5625 42.6094Z" fill="#8405DB"/>
</svg>
